PathFileType	4	(X/Y/Z)	C:/Users/opensim2020/Desktop/walking_exp_matlab/subject03_walking09_straight_04.trc																																																																																																																																											
DataRate	CameraRate	NumFrames	NumMarkers	Units	OrigDataRate	OrigDataStartFrame	OrigNumFrames																																																																																																																																							
100	100	5	47	mm	100	3833	353																																																																																																																																							
Frame#	Time	LFHD			RFHD			LBHD			RBHD			C7			T10			CLAV			STRN			RBAK			LSHO			LUPA			LELB			LFRM			LWRA			LWRB			LFIN			RSHO			RUPA			RELB			RFRM			RWRA			RWRB			RFIN			LASI			RASI			LPSI			RPSI			LTHI			LKNE			LTIB			LANK			LHEE			LTOE			RTHI			RKNE			RTIB			RANK			RHEE			RTOE			*39			*40			*41			*42			*43			*44			*45			*46		
		X1	Y1	Z1	X2	Y2	Z2	X3	Y3	Z3	X4	Y4	Z4	X5	Y5	Z5	X6	Y6	Z6	X7	Y7	Z7	X8	Y8	Z8	X9	Y9	Z9	X10	Y10	Z10	X11	Y11	Z11	X12	Y12	Z12	X13	Y13	Z13	X14	Y14	Z14	X15	Y15	Z15	X16	Y16	Z16	X17	Y17	Z17	X18	Y18	Z18	X19	Y19	Z19	X20	Y20	Z20	X21	Y21	Z21	X22	Y22	Z22	X23	Y23	Z23	X24	Y24	Z24	X25	Y25	Z25	X26	Y26	Z26	X27	Y27	Z27	X28	Y28	Z28	X29	Y29	Z29	X30	Y30	Z30	X31	Y31	Z31	X32	Y32	Z32	X33	Y33	Z33	X34	Y34	Z34	X35	Y35	Z35	X36	Y36	Z36	X37	Y37	Z37	X38	Y38	Z38	X39	Y39	Z39	X40	Y40	Z40	X41	Y41	Z41	X42	Y42	Z42	X43	Y43	Z43	X44	Y44	Z44	X45	Y45	Z45	X46	Y46	Z46	X47	Y47	Z47
																																																																																																																																														
89	0.88	-824.50934	1630.6676	-1481.91846	-833.55835	1638.41052	-1349.60986	-944.60492	1567.3429	-1483.81189	-948.26727	1575.11389	-1352.83728	-959.85522	1419.31689	-1428.8656	-990.68451	1107.72424	-1438.57275	-836.11578	1344.43835	-1418.81787	-791.86798	1179.54639	-1428.61743	-1019.28625	1242.78174	-1344.34814	-866.56958	1385.59558	-1576.91174	-852.14948	1189.55383	-1644.94202	-826.40985	1068.12158	-1650.79517	-772.46643	950.34595	-1638.7356	-728.3175	844.14282	-1597.22095	-748.09363	839.10858	-1649.07495	-710.28638	765.65204	-1631.89197	-896.86462	1363.21729	-1263.47058	-906.09955	1137.49854	-1202.64954	-894.51013	1024.29773	-1195.72107	-885.96716	887.38055	-1197.9762	-860.84937	791.19525	-1235.4386	-893.94952	787.04376	-1192.28625	-876.94244	714.52393	-1204.56177	-820.80078	940.54675	-1553.40845	-823.23322	946.27533	-1314.11499	-982.23853	966.17944	-1504.05994	-983.80176	974.16199	-1355.51367	-915.62201	641.80084	-1592.35645	-949.27411	465.46408	-1563.51001	-1081.86292	312.29657	-1563.88574	-1196.91992	137.04988	-1524.37683	-1247.4884	125.67291	-1486.75769	-1083.61475	33.772	-1497.08936	-848.18884	651.91852	-1273.97607	-804.12732	476.70941	-1311.9696	-817.61652	288.69525	-1308.50427	-796.84375	72.86361	-1355.44495	-834.21417	39.5335	-1409.0636	-651.7702	38.52892	-1369.19446	-918.4765	1678.77063	-1437.90442	NaN	NaN	NaN	NaN	NaN	NaN	NaN	NaN	NaN	NaN	NaN	NaN	NaN	NaN	NaN	NaN	NaN	NaN	NaN	NaN	NaN
90	0.89	-817.07007	1631.75708	-1481.08813	-825.70941	1639.39075	-1348.80652	-937.12396	1568.36658	-1482.71704	-940.54059	1576.05225	-1351.90076	-952.32434	1420.32849	-1427.69458	-982.48871	1108.57373	-1436.78564	-828.28723	1345.67542	-1418.05212	-783.78925	1180.68982	-1427.87317	-1010.87866	1243.75317	-1342.59888	-859.3761	1386.87695	-1576.03174	-845.87323	1190.65063	-1643.95374	-821.95154	1068.92664	-1650.23438	-769.94678	949.91016	-1639.26831	-727.37427	842.50409	-1598.98547	-748.18939	838.19257	-1650.5636	-712.16913	763.5318	-1634.20825	-888.48444	1364.51208	-1262.51404	-896.98254	1138.91785	-1201.27283	-885.2453	1025.75012	-1194.31262	-876.47937	888.88019	-1196.47485	-851.20258	792.68927	-1233.96863	-884.284	788.50317	-1190.67249	-867.31177	715.78345	-1203.03601	-812.68518	941.86609	-1551.96411	-814.6026	946.99622	-1312.88672	-974.04358	967.38715	-1502.37366	-975.22461	975.26892	-1353.81091	-904.71118	641.73456	-1591.77502	-936.57324	465.29822	-1565.23169	-1072.20667	314.59586	-1564.61865	-1190.99805	142.21683	-1524.02478	-1241.26465	133.07327	-1485.78345	-1082.92981	33.83052	-1496.87903	-843.28131	652.4668	-1273.3009	-800.87054	476.5506	-1310.92834	-815.9632	288.72571	-1308.20959	-796.74982	72.78323	-1355.61816	-834.18835	39.54832	-1409.19507	-651.62653	38.38292	-1369.19141	-910.89441	1679.66272	-1436.71118	NaN	NaN	NaN	NaN	NaN	NaN	NaN	NaN	NaN	NaN	NaN	NaN	NaN	NaN	NaN	NaN	NaN	NaN	NaN	NaN	NaN
91	0.9	-809.633	1632.69238	-1480.28174	-818.00348	1640.22058	-1347.98645	-929.33643	1569.25195	-1481.29565	-932.8064	1576.90247	-1350.84973	-944.4967	1420.91504	-1426.36719	-974.42926	1109.23987	-1434.80237	-820.48065	1346.61768	-1417.24622	-775.74823	1181.76331	-1427.08606	-1002.54352	1244.53455	-1340.84204	-852.06445	1387.87549	-1575.00244	-839.58691	1191.55432	-1643.0459	-817.27655	1069.37354	-1649.6217	-767.46179	949.46069	-1639.98181	-726.55365	840.75159	-1600.7948	-748.04401	837.30341	-1652.16589	-714.32214	761.43976	-1636.5946	-880.005	1365.72668	-1261.57983	-887.86237	1140.18958	-1199.9054	-875.91406	1027.04163	-1192.85046	-866.93286	890.2254	-1194.89661	-841.31744	793.96008	-1232.35852	-874.36395	789.79352	-1189.10693	-857.43134	717.08716	-1201.41479	-804.92682	942.96344	-1550.62549	-806.20056	947.37415	-1311.61523	-966.12689	968.4306	-1500.54956	-966.75812	976.29749	-1352.0033	-894.03333	641.89136	-1592.00342	-923.63629	465.1037	-1567.72852	-1061.99634	316.80917	-1565.37476	-1184.2655	147.41512	-1523.61072	-1234.07422	140.696	-1484.54675	-1082.12854	33.66483	-1496.68359	-837.88385	652.63849	-1272.58789	-797.43365	476.40402	-1309.99316	-814.23163	288.68271	-1307.87549	-796.69745	72.79606	-1355.79578	-834.14935	39.53241	-1409.27026	-651.48572	38.24787	-1369.28906	-903.41229	1680.7002	-1435.69397	NaN	NaN	NaN	NaN	NaN	NaN	NaN	NaN	NaN	NaN	NaN	NaN	NaN	NaN	NaN	NaN	NaN	NaN	NaN	NaN	NaN
92	0.91	-802.18896	1633.45203	-1479.48706	-810.21967	1640.83545	-1347.18042	-921.95825	1570.14111	-1480.27222	-924.98962	1577.58484	-1349.63843	-937.07324	1421.60083	-1425.38391	-966.46777	1109.74365	-1432.70068	-812.64117	1347.30042	-1416.38562	-767.71808	1182.61121	-1426.25806	-994.22766	1245.14856	-1339.10205	-844.74536	1388.60437	-1574.01672	-833.41663	1192.2583	-1642.24121	-812.59833	1069.82849	-1649.22253	-765.01733	948.99622	-1640.83508	-725.73608	838.96069	-1602.78748	-747.89508	836.32874	-1653.91919	-716.23895	759.27686	-1638.97083	-871.63074	1366.64246	-1260.6499	-878.63922	1141.27136	-1198.54395	-866.46844	1028.19373	-1191.3446	-857.03339	891.36627	-1193.30078	-831.40149	795.23846	-1230.63623	-864.30566	790.92224	-1187.30627	-847.08801	718.21014	-1199.84912	-797.34595	943.95239	-1549.27014	-797.96088	947.61859	-1310.44885	-958.49255	969.2052	-1498.72449	-958.44043	977.13605	-1350.17285	-883.50659	642.24719	-1593.01868	-909.55652	464.34662	-1569.64087	-1051.11316	319.02322	-1566.2832	-1176.44824	152.27068	-1523.0741	-1225.85315	148.43036	-1483.26013	-1081.02417	33.98728	-1496.3927	-832.34027	653.021	-1271.63867	-793.93842	476.30734	-1309.02002	-812.32501	288.75143	-1307.34143	-796.55823	72.777	-1355.92175	-834.11047	39.5533	-1409.3335	-651.32275	38.0932	-1369.37378	-895.83514	1681.45532	-1434.62219	NaN	NaN	NaN	NaN	NaN	NaN	NaN	NaN	NaN	NaN	NaN	NaN	NaN	NaN	NaN	NaN	NaN	NaN	NaN	NaN	NaN
93	0.92	-794.78497	1634.03333	-1478.7489	-802.59393	1641.29321	-1346.3479	-915.00427	1570.9397	-1479.72278	-917.39709	1578.1687	-1348.70129	-929.3382	1421.90466	-1424.13257	-958.64563	1110.10022	-1430.57166	-804.93201	1347.87561	-1415.69849	-760.00275	1183.21326	-1425.49402	-985.92914	1245.5127	-1337.25464	-837.52972	1389.06775	-1573.04333	-827.17157	1192.651	-1641.4082	-807.74121	1070.07288	-1648.82068	-762.36322	948.31647	-1641.72021	-724.87213	837.10547	-1604.85791	-747.58441	835.42078	-1655.81555	-718.09253	757.07794	-1641.36389	-863.3642	1367.38928	-1259.71741	-869.25549	1142.14087	-1197.203	-856.98212	1029.17468	-1189.79578	-847.05182	892.36401	-1191.63965	-821.29248	796.14154	-1229.00549	-853.95648	791.89319	-1185.58093	-836.85614	719.24225	-1197.95337	-789.93475	944.66486	-1547.98718	-789.79724	947.64758	-1309.37915	-951.01245	969.68903	-1496.92969	-950.27386	977.83862	-1348.37793	-872.80414	642.13751	-1593.82776	-895.42059	463.52826	-1571.91724	-1039.60999	321.16388	-1567.27515	-1168.18848	157.61653	-1522.9884	-1216.65771	156.2467	-1482.13513	-1079.92236	34.5097	-1496.42322	-827.17535	653.60187	-1270.88928	-790.41492	476.2601	-1308.08252	-810.24567	288.82242	-1306.72205	-796.31305	72.74184	-1356.01636	-834.08575	39.60475	-1409.2843	-651.15186	37.90822	-1369.39636	-888.1936	1682.08044	-1433.55457	NaN	NaN	NaN	NaN	NaN	NaN	NaN	NaN	NaN	NaN	NaN	NaN	NaN	NaN	NaN	NaN	NaN	NaN	NaN	NaN	NaN
